<?xml version="1.0" encoding="utf-8"?>
<!-- Generator: Adobe Illustrator 20.1.0, SVG Export Plug-In . SVG Version: 6.00 Build 0)  -->
<svg version="1.1" id="Layer_1" xmlns="http://www.w3.org/2000/svg" xmlns:xlink="http://www.w3.org/1999/xlink" x="0px" y="0px"
	 viewBox="0 0 512 512" style="enable-background:new 0 0 512 512;" xml:space="preserve">
<style type="text/css">
	.st0{fill:#78CFF5;}
</style>
<g id="Layer_6">
	<g>
		<path class="st0" d="M34.3,126.1C-10.6,190.6-5,274.5,29.3,343c0.8,1.6,1.7,3.3,2.5,4.9c0.5,1,1,2.1,1.6,3.1
			c0.3,0.6,0.7,1.2,1,1.8c0.6,1.1,1.2,2.1,1.8,3.2c1.1,1.9,2.2,3.7,3.3,5.6c0.6,1,1.2,2,1.9,3.1c1.2,2,2.5,4,3.8,5.9
			c0.5,0.8,1.1,1.7,1.6,2.5c1.8,2.7,3.6,5.3,5.5,7.9c0,0.1,0.1,0.1,0.2,0.2c0.3,0.4,0.6,0.8,0.9,1.3c1.6,2.2,3.3,4.5,5,6.7
			c0.6,0.8,1.3,1.6,1.9,2.4c1.5,1.9,3.1,3.8,4.6,5.7c0.6,0.7,1.2,1.4,1.8,2.1c2.1,2.5,4.3,5,6.5,7.4c0,0,0.1,0.1,0.1,0.1
			c0.1,0.1,0.2,0.2,0.2,0.3c2.1,2.3,4.3,4.6,6.6,6.9c0.7,0.7,1.4,1.4,2.1,2.1c1.7,1.7,3.5,3.4,5.2,5.1c0.7,0.7,1.4,1.4,2.1,2
			c2.4,2.2,4.7,4.4,7.2,6.5c0,0,0.1,0.1,0.1,0.1c0.4,0.4,0.8,0.7,1.2,1.1c2.1,1.9,4.3,3.7,6.5,5.5c0.9,0.7,1.8,1.4,2.7,2.2
			c1.8,1.4,3.6,2.9,5.4,4.2c1,0.7,1.9,1.5,2.9,2.2c2,1.5,4,2.9,6.1,4.4c0.7,0.5,1.5,1.1,2.2,1.6c0.2,0.1,0.4,0.3,0.6,0.4
			c1.9,1.3,3.9,2.6,5.9,3.9c0.9,0.6,1.7,1.2,2.6,1.7c3.1,1.9,6.1,3.8,9.3,5.7c0.9,0.5,1.7,1,2.6,1.4c2.3,1.3,4.6,2.6,7,3.9
			c1.3,0.7,2.6,1.3,3.8,2c1.7,0.9,3.3,1.8,5,2.6c0.4,0.2,0.8,0.4,1.2,0.6c0.7,0.3,1.4,0.6,2,1c2.6,1.2,5.2,2.5,7.9,3.7
			c0.6,0.2,1.1,0.5,1.7,0.7c3,1.3,6.1,2.6,9.2,3.8c0.7,0.3,1.5,0.6,2.2,0.9c2.9,1.1,5.8,2.2,8.7,3.2c0.4,0.1,0.7,0.2,1.1,0.4
			c3.2,1.1,6.4,2.2,9.7,3.2c0.8,0.2,1.6,0.5,2.3,0.7c3.3,1,6.6,2.2,10,2.8c217,39.6,280.1-130.4,280.1-130.4
			c-52.9,69-146.9,87.2-236,66.9c-3.4-0.8-6.6-1.8-9.9-2.8c-0.8-0.2-1.7-0.5-2.5-0.8c-3.2-1-6.4-2-9.6-3.1c-0.4-0.2-0.9-0.3-1.3-0.5
			c-2.8-1-5.6-2-8.4-3.1c-0.8-0.3-1.6-0.6-2.4-0.9c-3.1-1.2-6.1-2.5-9.1-3.8c-0.6-0.3-1.2-0.5-1.8-0.8c-2.6-1.2-5.1-2.3-7.7-3.6
			c-0.7-0.4-1.5-0.7-2.2-1.1c-2-1-4-2-5.9-3c-1.3-0.7-2.7-1.4-4-2.1c-2.4-1.3-4.8-2.6-7.1-4c-0.8-0.5-1.6-0.9-2.4-1.3
			c-3.1-1.8-6.2-3.8-9.3-5.7c-0.8-0.5-1.7-1.1-2.5-1.7c-2.2-1.4-4.4-2.9-6.6-4.4c-0.7-0.5-1.4-1-2.1-1.5c-2.1-1.5-4.2-3-6.2-4.5
			c-0.9-0.7-1.9-1.4-2.8-2.1c-1.9-1.4-3.8-2.9-5.6-4.4c-0.8-0.7-1.7-1.3-2.5-2c-2.4-1.9-4.7-3.9-7-5.9c-0.2-0.2-0.5-0.4-0.8-0.6
			c-2.5-2.2-5-4.4-7.4-6.7c-0.7-0.7-1.4-1.3-2.1-2c-1.8-1.7-3.6-3.4-5.3-5.2c-0.7-0.7-1.4-1.4-2.1-2.1c-2.2-2.3-4.4-4.6-6.5-6.9
			c-0.1-0.1-0.2-0.2-0.3-0.3c-2.2-2.5-4.4-5-6.6-7.5c-0.6-0.7-1.1-1.4-1.7-2c-1.6-1.9-3.2-3.9-4.7-5.9c-0.6-0.7-1.2-1.4-1.7-2.2
			c-1.9-2.4-3.7-4.8-5.5-7.3C47.6,251,29.8,158,69.3,81.6"/>
		<path class="st0" d="M173.6,71.7c-32.5,46.7-30.7,109.2-5.4,158.6c4.2,8.3,9,16.3,14.4,24c4.9,7,10.2,15.3,16.7,20.9
			c2.3,2.6,4.8,5.1,7.3,7.6c0.6,0.7,1.3,1.3,1.9,1.9c2.4,2.3,4.9,4.7,7.4,6.9c0.1,0.1,0.2,0.2,0.3,0.3c0,0,0.1,0,0.1,0.1
			c2.8,2.5,5.7,4.8,8.7,7.2c0.7,0.5,1.3,1,2,1.5c3,2.3,6,4.5,9.1,6.6c0.1,0.1,0.2,0.1,0.3,0.2c1.4,0.9,2.8,1.8,4.1,2.7
			c0.7,0.4,1.3,0.9,2,1.3c2.2,1.4,4.5,2.8,6.7,4.1c0.3,0.2,0.6,0.4,1,0.5c2,1.1,4,2.2,6,3.3c0.7,0.4,1.4,0.7,2.1,1.1
			c1.4,0.7,2.8,1.5,4.2,2.2c0.2,0.1,0.4,0.2,0.6,0.3c2.9,1.4,5.7,2.8,8.7,4c0.6,0.3,1.3,0.5,1.9,0.8c2.4,1,4.7,2,7.1,2.9
			c1,0.4,2,0.7,3.1,1.1c2.2,0.8,4.3,1.5,6.5,2.3c1,0.3,2,0.6,3,0.9c3.1,1,6.2,2.2,9.5,2.7C470.3,365.6,509,236.5,509,236.5
			c-34.9,50.2-102.4,74.2-174.5,55.5c-3.2-0.8-6.4-1.8-9.5-2.7c-1-0.3-1.9-0.6-2.9-0.9c-2.2-0.7-4.4-1.5-6.6-2.3c-1-0.4-2-0.7-3-1.1
			c-2.4-0.9-4.8-1.9-7.1-2.9c-0.6-0.3-1.3-0.5-1.9-0.8c-3-1.3-5.9-2.6-8.7-4.1c-1.5-0.7-2.9-1.5-4.4-2.2c-0.8-0.4-1.7-0.9-2.5-1.3
			c-1.9-1-3.7-2.1-5.5-3.1c-0.4-0.2-0.9-0.5-1.3-0.7c-2.3-1.3-4.5-2.7-6.7-4.1c-0.7-0.4-1.3-0.9-2-1.4c-1.5-0.9-2.9-1.9-4.4-2.9
			c-3.1-2.1-6.1-4.4-9.1-6.6c-0.7-0.5-1.4-1.1-2-1.6c-31.5-24.9-56.5-58.9-68.4-97.5c-12.5-40-9.8-84.9,11.8-121.4"/>
		<path class="st0" d="M290.8,31.1c-19.1,28.2-21,63.1-7.7,94.2c14,33,42.7,58.9,76.2,71.2c1.4,0.5,2.8,1,4.2,1.4
			c0.6,0.2,1.2,0.4,1.8,0.6c2,0.6,3.9,1.3,6,1.7c92.5,17.9,117.6-47.5,124.3-57.1c-22,31.7-58.9,39.2-104.3,28.3
			c-3.6-0.9-7.5-2.2-11-3.4c-4.4-1.6-8.8-3.4-13-5.4c-8-3.9-15.7-8.6-22.8-13.9c-40.6-30.8-65.8-89.5-39.3-137.3"/>
	</g>
</g>
</svg>
