<?xml version="1.0" encoding="utf-8"?>
<!-- Generator: Adobe Illustrator 20.1.0, SVG Export Plug-In . SVG Version: 6.00 Build 0)  -->
<svg version="1.1" id="Layer_1" xmlns="http://www.w3.org/2000/svg" xmlns:xlink="http://www.w3.org/1999/xlink" x="0px" y="0px"
	 viewBox="0 0 2270 2500" style="enable-background:new 0 0 2270 2500;" xml:space="preserve">
<style type="text/css">
	.st0{fill:#8CC84B;}
</style>
<g>
	<path class="st0" d="M1046.9,199.5c53.2-30.5,122.5-30.6,175.7,0c267.5,151.2,535.1,302.1,802.6,453.3
		c50.3,28.3,84,84.3,83.4,142.3v909.4c0.4,60.4-36.6,117.7-89.7,145.4c-266.6,150.3-533.1,300.8-799.7,451.2
		c-54.3,31.1-125,28.7-177.7-4.9c-79.9-46.3-160-92.4-240-138.7c-16.3-9.7-34.8-17.5-46.3-33.3c10.2-13.7,28.4-15.5,43.2-21.5
		c33.4-10.6,64-27.6,94.7-44.2c7.8-5.3,17.2-3.3,24.6,1.5c68.4,39.2,136.1,79.5,204.7,118.3c14.6,8.4,29.4-2.8,42-9.7
		c261.6-147.9,523.6-295.2,785.2-443.1c9.7-4.7,15.1-15,14.3-25.6c0.2-300,0-600,0.1-900c1.1-12-5.9-23.1-16.8-28.1
		c-265.7-149.6-531.3-299.5-796.9-449.2c-9.4-6.5-21.9-6.5-31.3,0C853.4,472.2,587.9,622.2,322.3,771.9
		c-10.9,4.9-18.1,15.8-16.8,27.9c0,300,0,600,0,900.1c-0.9,10.6,4.8,20.7,14.4,25.2c70.9,40.2,141.9,80.1,212.8,120.2
		c40,21.5,89,34.3,133.1,17.8c38.9-13.9,66.1-53.6,65.4-94.8c0.4-298.2-0.2-596.5,0.3-894.7c-1-13.2,11.6-24.2,24.5-22.9
		c34.1-0.2,68.2-0.5,102.2,0.1c14.2-0.3,24,13.9,22.2,27.3c-0.1,300.1,0.4,600.3-0.2,900.4c0.1,80-32.8,167-106.8,206.2
		c-91.1,47.2-203.8,37.2-293.9-8.1c-78-38.9-152.3-84.8-228.9-126.5c-53.2-27.5-90-85.1-89.6-145.4V795.1
		c-0.6-59.2,34.4-116.2,86.3-144.1C513.8,500.6,780.3,350,1046.9,199.5z"/>
	<path class="st0" d="M1279.4,829.5c116.3-7.5,240.7-4.4,345.4,52.8c81,43.9,125.9,136,127.3,226c-2.3,12.1-15,18.8-26.5,18
		c-33.7,0-67.5,0.5-101.2-0.2c-14.3,0.6-22.6-12.6-24.4-25.3c-9.7-43.1-33.2-85.7-73.7-106.5c-62.2-31.2-134.4-29.6-202.2-28.9
		c-49.5,2.6-102.8,6.9-144.7,36c-32.2,22.1-42,66.6-30.5,102.5c10.8,25.8,40.6,34.1,64.9,41.7c140.1,36.6,288.6,33,426,81.2
		c56.9,19.7,112.6,57.9,132,117.5c25.5,79.9,14.3,175.3-42.5,239.4c-46.1,52.8-113.2,81.5-180.1,97.1
		c-89,19.9-181.4,20.4-271.8,11.5c-85-9.7-173.5-32-239.1-90c-56.1-48.7-83.5-124.7-80.8-197.9c0.6-12.4,13-21,24.8-20
		c34-0.3,67.9-0.4,101.9,0c13.6-1,23.6,10.8,24.3,23.5c6.3,41,21.7,84.1,57.5,108.4c69,44.5,155.7,41.5,234.7,42.7
		c65.5-2.9,139-3.8,192.5-47.1c28.2-24.7,36.6-66,28.9-101.5c-8.3-30-39.6-44-66.6-53.1c-138.3-43.8-288.5-27.9-425.4-77.4
		c-55.6-19.7-109.4-56.8-130.8-113.9c-29.8-80.9-16.2-180.9,46.6-242.8C1107.1,861.7,1195.4,837.9,1279.4,829.5L1279.4,829.5z"/>
</g>
</svg>
