<?xml version="1.0" encoding="utf-8"?>
<!-- Generator: Adobe Illustrator 20.1.0, SVG Export Plug-In . SVG Version: 6.00 Build 0)  -->
<svg version="1.1" id="Layer_1" xmlns="http://www.w3.org/2000/svg" xmlns:xlink="http://www.w3.org/1999/xlink" x="0px" y="0px"
	 viewBox="0 0 593.3 595.3" style="enable-background:new 0 0 593.3 595.3;" xml:space="preserve">
<style type="text/css">
	.st0{fill:#61DAFB;}
</style>
<g>
	<path class="st0" d="M587.7,296.5c0-38.6-48.3-75.1-122.3-97.8c17.1-75.4,9.5-135.5-24-154.7c-7.7-4.5-16.7-6.6-26.6-6.6v26.5
		c5.5,0,9.8,1.1,13.5,3.1c16.1,9.3,23.1,44.5,17.7,89.8c-1.3,11.2-3.4,22.9-6.1,34.9c-23.3-5.7-48.6-10.1-75.3-12.9
		c-16-21.9-32.6-41.9-49.4-59.3c38.7-35.9,75-55.6,99.6-55.6V37.3c-32.6,0-75.3,23.3-118.5,63.6C253.3,60.8,210.6,37.8,178,37.8
		v26.5c24.6,0,61,19.6,99.6,55.3c-16.6,17.4-33.2,37.2-49,59.2c-26.8,2.8-52.2,7.2-75.4,13c-2.7-11.9-4.7-23.4-6.2-34.4
		c-5.6-45.3,1.3-80.5,17.3-89.9c3.6-2.1,8.2-3.1,13.6-3.1V37.9c-10,0-19,2.1-26.8,6.6c-33.3,19.2-40.8,79.1-23.6,154.3
		C53.7,221.7,5.7,258.1,5.7,296.5c0,38.6,48.3,75.1,122.3,97.8c-17.1,75.4-9.5,135.5,24,154.7c7.7,4.5,16.7,6.6,26.7,6.6
		c32.6,0,75.3-23.3,118.5-63.6c43.2,40.1,85.9,63.1,118.5,63.1c10,0,19-2.1,26.8-6.6c33.3-19.2,40.8-79.1,23.6-154.3
		C539.7,371.5,587.7,334.9,587.7,296.5L587.7,296.5z M433.2,217.4c-4.4,15.3-9.8,31.1-16,46.9c-4.9-9.5-10-19-15.5-28.5
		c-5.5-9.5-11.3-18.7-17.1-27.8C401.5,210.5,417.7,213.6,433.2,217.4L433.2,217.4z M378.9,343.7c-9.3,16-18.7,31.2-28.6,45.3
		c-17.7,1.5-35.6,2.4-53.6,2.4c-17.9,0-35.8-0.8-53.4-2.3c-9.8-14.1-19.5-29.2-28.7-45.1c-9-15.5-17.2-31.3-24.7-47.2
		c7.4-15.9,15.7-31.8,24.6-47.3c9.3-16,18.7-31.2,28.6-45.3c17.7-1.5,35.6-2.4,53.6-2.4c17.9,0,35.8,0.8,53.4,2.3
		c9.8,14.1,19.5,29.2,28.7,45.1c9,15.5,17.2,31.3,24.7,47.2C396,312.3,387.8,328.2,378.9,343.7L378.9,343.7z M417.2,328.3
		c6.4,15.9,11.9,31.8,16.4,47.2c-15.5,3.8-31.9,7-48.9,9.5c5.8-9.1,11.6-18.5,17.1-28.1C407.3,347.4,412.4,337.8,417.2,328.3
		L417.2,328.3z M296.9,454.9c-11-11.4-22.1-24.1-33-38c10.7,0.5,21.6,0.8,32.6,0.8c11.2,0,22.2-0.2,33-0.8
		C318.9,430.8,307.9,443.5,296.9,454.9z M208.7,385c-16.8-2.5-33.1-5.6-48.6-9.4c4.4-15.3,9.8-31.1,16-46.9c4.9,9.5,10,19,15.5,28.5
		C197.2,366.7,202.9,376,208.7,385z M296.3,138.1c11,11.4,22.1,24.1,33,38c-10.7-0.5-21.6-0.8-32.6-0.8c-11.2,0-22.2,0.2-33,0.8
		C274.4,162.2,285.4,149.5,296.3,138.1z M208.6,208c-5.8,9.1-11.6,18.5-17.1,28.1c-5.5,9.5-10.6,19-15.4,28.5
		c-6.4-15.9-11.9-31.8-16.4-47.2C175.2,213.7,191.6,210.5,208.6,208L208.6,208z M101.2,356.5c-42-17.9-69.2-41.4-69.2-60
		c0-18.6,27.2-42.2,69.2-60c10.2-4.4,21.4-8.3,32.9-12c6.8,23.3,15.7,47.5,26.7,72.2c-10.9,24.7-19.7,48.8-26.3,71.9
		C122.7,365,111.5,360.9,101.2,356.5L101.2,356.5z M165,526.1c-16.1-9.3-23.1-44.5-17.7-89.8c1.3-11.2,3.4-22.9,6.1-34.9
		c23.3,5.7,48.6,10.1,75.3,12.9c16,21.9,32.6,41.9,49.4,59.3c-38.7,35.9-75,55.6-99.6,55.6C173.1,529.1,168.6,528.1,165,526.1
		L165,526.1z M446.4,435.7c5.6,45.3-1.3,80.5-17.3,89.9c-3.6,2.1-8.2,3.1-13.6,3.1c-24.6,0-61-19.6-99.6-55.3
		c16.6-17.4,33.2-37.2,49-59.2c26.8-2.8,52.2-7.2,75.4-13C443,413.1,445.1,424.6,446.4,435.7z M492.1,356.5
		c-10.2,4.4-21.4,8.3-32.9,12c-6.8-23.3-15.7-47.5-26.7-72.2c10.9-24.7,19.7-48.8,26.3-71.9c11.7,3.7,22.9,7.7,33.3,12.1
		c42,17.9,69.2,41.4,69.2,60C561.2,315.1,534.1,338.7,492.1,356.5L492.1,356.5z"/>
	<circle class="st0" cx="296.6" cy="296.5" r="54.2"/>
	<path class="st0" d="M414.7,37.4"/>
</g>
</svg>
